# 
# 
mtllib Poster_WeWantYou.mtl
v 0.918878 -1.088089 0.088480
v 0.459438 -1.088089 0.023184
v 0.918878 -0.544044 0.023184
v 0.459438 -0.544044 0.023184
v -0.459438 0.000000 0.023184
v -0.918878 0.000000 0.062643
v -0.918878 -0.544044 0.023184
v -0.459438 -0.544044 0.023184
v 0.000000 -1.088089 0.090913
v 0.000000 -0.544044 0.065984
v 0.918878 0.000000 0.058075
v -0.918878 -1.088089 0.095292
v -0.459438 -1.088089 0.023184
v 0.459438 0.000000 0.058075
v 0.000000 0.000000 0.023184
v -0.459438 0.544044 0.023184
v 0.000000 0.544044 0.023184
v 0.459438 0.544044 0.023184
v 0.459438 1.088089 0.023184
v 0.000000 1.088089 0.023184
v -0.459438 1.088089 0.023184
v -0.918878 1.088089 0.145928
v -0.918878 0.544044 0.023184
v 0.918878 0.544044 0.023184
v 0.876014 0.816067 0.084473
v 0.794583 1.022173 0.244379
v 0.662970 1.088089 0.099506
v -0.918878 1.088089 0.118043
v -0.918878 0.544044 -0.004701
v -0.459438 1.088089 -0.004701
v 0.000000 1.088089 -0.004701
v -0.459438 0.544044 -0.004701
v -0.918878 0.000000 0.034756
v -0.918878 -0.544044 -0.004701
v -0.459438 -0.000000 -0.004701
v -0.459438 -0.544044 -0.004701
v -0.918878 -1.088089 0.067407
v -0.459438 -1.088089 -0.004701
v 0.918878 0.000000 0.030188
v 0.459438 -0.544044 -0.004701
v 0.918878 -0.544044 -0.004701
v 0.000000 -1.088089 0.063026
v 0.918878 -1.088089 0.060593
v 0.459438 -1.088089 -0.004701
v 0.000000 -0.000000 -0.004701
v 0.000000 -0.544044 0.038097
v 0.459438 0.000000 0.030188
v 0.918878 0.544044 -0.004701
v 0.459438 0.544044 -0.004701
v 0.000000 0.544044 -0.004701
v 0.662970 1.088089 0.071621
v 0.794583 1.022173 0.216493
v 0.459438 1.088089 -0.004701
v 0.876014 0.816067 0.056588
vt 0.250000 0.750000
vt 0.500000 0.999970
vt 0.250000 0.999970
vt 0.750000 0.999970
vt 1.000000 0.750000
vt 1.000000 0.999970
vt 0.000030 0.500000
vt 0.250000 0.250000
vt 0.250000 0.500000
vt 0.750000 0.000000
vt 1.000000 0.000000
vt 1.000000 0.250000
vt 0.750000 0.250000
vt 0.500000 0.000000
vt 1.000000 0.500000
vt 0.000030 0.250000
vt 0.250000 0.000000
vt 0.500000 0.250000
vt 0.750000 0.500000
vt 0.000030 0.000000
vt 0.000030 0.750000
vt 0.500000 0.500000
vt 0.500000 0.750000
vt 0.750000 0.750000
vt 0.000030 0.999970
vt 1.000000 0.875000
vt 0.875000 0.999970
vt 0.000030 0.875000
vt 0.125000 0.999970
vn 0.014252 0.012055 0.999817
vn 0.000000 0.000000 1.000000
vn 0.085116 -0.071871 0.993744
vn -0.085116 0.071871 -0.993744
vn -0.085299 0.047578 -0.995209
vn -0.252174 0.212958 -0.943937
vn 0.000000 0.021363 -0.999756
vn -0.055300 0.024415 -0.998169
vn 0.008393 -0.020386 -0.999756
vn 0.002045 0.039644 0.999207
vn -0.139714 0.117985 0.983123
vn -0.046785 0.018067 0.998718
vn 0.055300 -0.024415 0.998169
vn 0.000000 0.022950 0.999725
vn 0.000000 -0.021363 0.999756
vn 0.057100 0.000061 0.998352
vn 0.028504 -0.012024 0.999512
vn 0.060030 0.014496 0.998077
vn -0.055269 0.020631 0.998230
vn 0.002655 0.043672 0.999023
vn -0.015137 0.036927 0.999176
vn -0.008393 0.020417 0.999756
vn -0.076693 -0.032197 0.996521
vn 0.153722 0.129826 0.979522
vn 0.085299 -0.047578 0.995209
vn -0.048799 0.031281 0.998291
vn -0.010804 0.009125 0.999878
vn 0.000000 0.032014 0.999481
vn -0.130039 -0.115696 0.984710
vn 0.252174 -0.212958 0.943937
vn -0.478957 -0.406629 0.777947
vn -0.559008 -0.475356 0.679342
vn -0.715934 -0.582018 0.385571
vn 0.000000 0.000000 -1.000000
vn -0.014252 -0.012055 -0.999817
vn -0.057100 -0.000061 -0.998352
vn -0.028504 0.012024 -0.999512
vn -0.060030 -0.014496 -0.998077
vn 0.055269 -0.020631 -0.998230
vn -0.002655 -0.043672 -0.999023
vn 0.000000 -0.022950 -0.999725
vn 0.015137 -0.036927 -0.999176
vn -0.153722 -0.129826 -0.979522
vn 0.046785 -0.018067 -0.998718
vn -0.002045 -0.039644 -0.999207
vn 0.139714 -0.117985 -0.983123
vn 0.048799 -0.031281 -0.998291
vn 0.010804 -0.009125 -0.999878
vn 0.000000 -0.032014 -0.999481
vn 0.076693 0.032197 -0.996521
vn 0.130039 0.115696 -0.984710
vn 0.715934 0.582018 -0.385571
vn 0.478957 0.406629 -0.777947
vn 0.559008 0.475356 -0.679342
usemtl Poster_WeWantYou
s 1
f 16/1/1 20/2/2 21/3/3
f 30/4/4 29/5/5 28/6/6
f 39/7/7 40/8/8 47/9/9
f 2/10/10 1/11/11 3/12/12
f 4/13/13 9/14/14 2/10/10
f 2/10/10 3/12/12 4/13/13
f 11/15/15 4/13/13 3/12/12
f 16/1/1 6/7/16 5/9/17
f 7/16/18 5/9/17 6/7/16
f 5/9/17 7/16/18 8/8/19
f 7/16/18 13/17/20 8/8/19
f 9/14/14 8/8/19 13/17/20
f 8/8/19 9/14/14 10/18/21
f 9/14/14 4/13/13 10/18/21
f 14/19/22 10/18/21 4/13/13
f 4/13/13 11/15/15 14/19/22
f 24/5/23 14/19/22 11/15/15
f 13/17/20 7/16/18 12/20/24
f 6/7/16 16/1/1 23/21/25
f 10/18/21 14/19/22 15/22/26
f 15/22/26 8/8/19 10/18/21
f 8/8/19 15/22/26 5/9/17
f 17/23/27 5/9/17 15/22/26
f 5/9/17 17/23/27 16/1/1
f 14/19/22 17/23/27 15/22/26
f 17/23/27 14/19/22 18/24/28
f 14/19/22 24/5/23 18/24/28
f 24/5/23 19/4/29 18/24/28
f 19/4/29 17/23/27 18/24/28
f 17/23/27 19/4/29 20/2/2
f 20/2/2 16/1/1 17/23/27
f 21/3/3 23/21/25 16/1/1
f 23/21/25 21/3/3 22/25/30
f 25/26/31 19/4/29 24/5/23
f 27/27/32 19/4/29 25/26/31
f 27/27/32 25/26/31 26/6/33
f 31/2/34 32/24/35 30/4/4
f 29/5/5 30/4/4 32/24/35
f 32/24/35 33/15/36 29/5/5
f 33/15/36 32/24/35 35/19/37
f 35/19/37 34/12/38 33/15/36
f 34/12/38 35/19/37 36/13/39
f 38/10/40 34/12/38 36/13/39
f 36/13/39 42/14/41 38/10/40
f 42/14/41 36/13/39 46/18/42
f 40/8/8 42/14/41 46/18/42
f 34/12/38 38/10/40 37/11/43
f 40/8/8 39/7/7 41/16/44
f 41/16/44 44/17/45 40/8/8
f 42/14/41 40/8/8 44/17/45
f 44/17/45 41/16/44 43/20/46
f 45/22/47 36/13/39 35/19/37
f 36/13/39 45/22/47 46/18/42
f 47/9/9 46/18/42 45/22/47
f 50/23/48 47/9/9 45/22/47
f 47/9/9 50/23/48 49/1/49
f 46/18/42 47/9/9 40/8/8
f 47/9/9 48/21/50 39/7/7
f 48/21/50 47/9/9 49/1/49
f 49/1/49 53/3/51 48/21/50
f 50/23/48 53/3/51 49/1/49
f 53/3/51 50/23/48 31/2/34
f 32/24/35 31/2/34 50/23/48
f 50/23/48 35/19/37 32/24/35
f 35/19/37 50/23/48 45/22/47
f 52/25/52 54/28/53 51/29/54
f 54/28/53 53/3/51 51/29/54
f 48/21/50 53/3/51 54/28/53
